<?xml version="1.0" standalone="no"?>
<!DOCTYPE svg PUBLIC "-//W3C//DTD SVG 20010904//EN"
 "http://www.w3.org/TR/2001/REC-SVG-20010904/DTD/svg10.dtd">
<svg version="1.0" xmlns="http://www.w3.org/2000/svg"
 width="165.000000pt" height="165.000000pt" viewBox="0 0 165.000000 165.000000"
 preserveAspectRatio="xMidYMid meet">

<g transform="translate(0.000000,165.000000) scale(0.100000,-0.100000)"
fill="#000000" stroke="none">
<path d="M287 1124 c-15 -15 -6 -51 18 -74 28 -26 33 -50 10 -50 -8 0 -15 7
-15 15 0 8 -4 15 -10 15 -5 0 -10 -9 -10 -19 0 -24 36 -37 55 -21 22 18 18 44
-10 70 -26 25 -33 50 -14 50 7 0 18 -8 26 -17 12 -17 13 -16 11 7 -2 18 -10
26 -28 28 -14 2 -29 0 -33 -4z"/>
<path d="M384 1083 c12 -84 17 -103 31 -103 7 0 16 19 21 48 l8 47 10 -47 c5
-27 15 -48 22 -48 13 0 20 21 30 98 8 66 -11 71 -21 5 -6 -38 -9 -44 -16 -28
-4 11 -8 32 -8 48 -1 37 -31 37 -32 0 0 -16 -4 -37 -8 -48 -7 -16 -10 -10 -16
28 -4 26 -12 47 -17 47 -6 0 -8 -18 -4 -47z"/>
<path d="M547 1124 c-4 -4 -7 -33 -7 -64 0 -65 18 -92 48 -73 13 8 17 25 17
74 0 61 -1 64 -25 67 -14 2 -29 0 -33 -4z m43 -69 c0 -42 -3 -55 -15 -55 -12
0 -15 13 -15 55 0 42 3 55 15 55 12 0 15 -13 15 -55z"/>
<path d="M640 1055 l0 -75 35 0 c39 0 48 17 13 22 -21 3 -23 9 -26 66 -4 88
-22 78 -22 -13z"/>
<path d="M740 1055 l0 -75 35 0 c19 0 35 5 35 10 0 6 -11 10 -25 10 -20 0 -25
5 -25 25 0 18 5 25 20 25 11 0 20 5 20 10 0 6 -9 10 -20 10 -13 0 -20 7 -20
20 0 15 7 20 25 20 14 0 25 5 25 10 0 6 -16 10 -35 10 l-35 0 0 -75z"/>
<path d="M850 1054 c0 -52 3 -73 11 -68 6 3 9 20 7 36 -6 39 9 46 17 8 8 -37
22 -39 31 -5 9 37 24 30 24 -10 0 -19 5 -35 10 -35 6 0 10 32 10 76 0 65 -2
75 -17 72 -9 -2 -21 -20 -28 -43 l-12 -40 -12 28 c-6 16 -11 35 -11 43 0 8 -7
14 -15 14 -12 0 -15 -15 -15 -76z"/>
<path d="M1001 1073 c-6 -31 -11 -66 -11 -77 1 -20 2 -20 14 -3 7 9 19 17 26
17 7 0 19 -8 27 -17 13 -16 14 -14 8 22 -20 127 -45 150 -64 58z m39 -23 c0
-11 -4 -20 -10 -20 -5 0 -10 9 -10 20 0 11 5 20 10 20 6 0 10 -9 10 -20z"/>
<path d="M1080 1120 c0 -5 7 -10 15 -10 12 0 15 -14 15 -65 0 -37 4 -65 10
-65 6 0 10 28 10 65 0 51 3 65 15 65 8 0 15 5 15 10 0 6 -18 10 -40 10 -22 0
-40 -4 -40 -10z"/>
<path d="M1190 1055 l0 -75 40 0 c45 0 55 17 13 22 -36 4 -40 41 -5 46 26 4
20 22 -9 22 -12 0 -19 7 -19 20 0 16 7 20 30 20 17 0 30 5 30 10 0 6 -18 10
-40 10 l-40 0 0 -75z"/>
<path d="M1307 1124 c-15 -15 -6 -51 18 -74 28 -26 33 -50 10 -50 -8 0 -15 7
-15 15 0 8 -4 15 -10 15 -5 0 -10 -9 -10 -19 0 -24 36 -37 55 -21 22 18 18 44
-10 70 -28 26 -33 50 -10 50 8 0 15 -7 15 -15 0 -8 5 -15 11 -15 6 0 9 10 7
23 -2 15 -11 23 -28 25 -14 2 -29 0 -33 -4z"/>
<path d="M657 893 c-9 -15 -7 -168 2 -182 13 -20 31 -4 31 30 l0 29 84 0 c62
0 87 4 96 15 14 17 10 18 -82 16 -46 -1 -58 1 -58 14 0 8 -9 15 -19 15 -15 0
-21 8 -23 32 -3 30 -21 48 -31 31z"/>
<path d="M967 894 c-4 -4 -7 -20 -7 -36 0 -21 -5 -28 -20 -28 -16 0 -20 -7
-20 -30 0 -23 5 -30 19 -30 15 0 21 -8 23 -32 2 -21 8 -33 18 -33 12 0 15 17
15 94 0 88 -8 115 -28 95z"/>
<path d="M590 800 c0 -16 5 -30 10 -30 6 0 10 14 10 30 0 17 -4 30 -10 30 -5
0 -10 -13 -10 -30z"/>
<path d="M1040 800 c0 -16 5 -30 10 -30 6 0 10 14 10 30 0 17 -4 30 -10 30 -5
0 -10 -13 -10 -30z"/>
</g>
</svg>
